<svg id="Layer_1" data-name="Layer 1" xmlns="http://www.w3.org/2000/svg" width="78.89" height="53.23" viewBox="0 0 78.89 53.23"><defs><style>.cls-1{fill:#fff;}</style></defs><title>logos</title><path class="cls-1" d="M11.84,38.46v-.08c0-.18-.2-.26-.51-.22a5.14,5.14,0,0,1-1.43-1,5.51,5.51,0,0,1-1-1.17,1,1,0,0,1-.13-.28.22.22,0,0,1,.07-.22,1.8,1.8,0,0,1,.25-.18l.22-.14a1.57,1.57,0,0,1,.68-.45c.18,0,.35.05.52.27a3,3,0,0,0,1.41.9,4,4,0,0,0,1.95.12,4.16,4.16,0,0,0,1.59-.61A1,1,0,0,0,16,34.34a2.14,2.14,0,0,0-.6-1,.76.76,0,0,0-.24-.27l-.37-.21a8.29,8.29,0,0,1-1.09-.67,6.79,6.79,0,0,1-1-.27l-.62-.17a7.41,7.41,0,0,1-1.69-.78A4.75,4.75,0,0,1,9,29.8a2.28,2.28,0,0,1-.9-1.63,5.09,5.09,0,0,1,.17-2.48,12.18,12.18,0,0,1,1.17-2.52A10.64,10.64,0,0,1,10.93,21l.58-.8c0-.08,0-.12.06-.14l.08,0,.52-.36a3.58,3.58,0,0,0,.9-.89,16.76,16.76,0,0,1,2.73-1.67,9.19,9.19,0,0,1,2.09-.71,3.44,3.44,0,0,1,2.1.41,2.57,2.57,0,0,1,1.32,1.43,2.4,2.4,0,0,1,.13.43A4.28,4.28,0,0,1,21,21a5.34,5.34,0,0,1-1.42,2.07,1.87,1.87,0,0,1-.75.32,1.09,1.09,0,0,1-.79-.11.73.73,0,0,1-.37-.58,1.28,1.28,0,0,1,.08-.58A7.42,7.42,0,0,1,18.4,21,4.51,4.51,0,0,0,19,18.87c-.05-.27-.24-.41-.58-.4a4.88,4.88,0,0,0-1.56.51c-.84.36-1.25.59-1.24.68a.22.22,0,0,1,0,.09q0,.08-.09.06A8.73,8.73,0,0,0,14.15,21a8.35,8.35,0,0,0-1.29,1.32.54.54,0,0,1-.15.32,1.71,1.71,0,0,1-.37.33,3.15,3.15,0,0,0-.74,1,16.46,16.46,0,0,0-.73,1.8,5.14,5.14,0,0,0-.35,1.09,2.92,2.92,0,0,0,0,1,1.54,1.54,0,0,0,.17.5,1.4,1.4,0,0,0,.72.64c.35.17,1,.45,2,.83A20.39,20.39,0,0,1,16.18,31a5,5,0,0,1,1.6,1.16,2.85,2.85,0,0,1,.72,1.54,4.93,4.93,0,0,1,0,1.53,4.35,4.35,0,0,1-.45,1.07q-.3.51-.6.54a1.71,1.71,0,0,0-.42.28,2.2,2.2,0,0,1-.3.23,6.08,6.08,0,0,1-1.59.69,13.56,13.56,0,0,1-2.2.57Z"/><path class="cls-1" d="M22.56,34.79a5.86,5.86,0,0,1-.61-.31,4.84,4.84,0,0,1-1-1,1.79,1.79,0,0,1-.41-1,.86.86,0,0,0,0-.39,1.44,1.44,0,0,1-.05-.24c-.09-.06-.13-.1-.14-.13a.12.12,0,0,1,0-.09.26.26,0,0,0,.07-.11c.1,0,.12-.12,0-.32a2.3,2.3,0,0,1,0-1,6.39,6.39,0,0,1,.38-1.46,13.25,13.25,0,0,1,.66-1.37A8,8,0,0,1,22.39,26a6.06,6.06,0,0,1,2.18-1.83,4.2,4.2,0,0,1,1-.32,1.66,1.66,0,0,1,1.29.21,1.78,1.78,0,0,1,1,.55,3,3,0,0,1,.57,1.16,2.86,2.86,0,0,1,.12.53,7.34,7.34,0,0,1-.78,4.43,7.81,7.81,0,0,1-1,1.65,10.35,10.35,0,0,1-1.32,1.35,2.89,2.89,0,0,1-.95.62,14.23,14.23,0,0,1-1.43.42A1.18,1.18,0,0,1,22.56,34.79ZM25.85,30c.1-.34.22-.94.37-1.78a1.93,1.93,0,0,0,0-1c-.08-.43-.18-.67-.32-.7a.55.55,0,0,0-.34-.05,1.77,1.77,0,0,0-.72.52,10.16,10.16,0,0,0-1.28,2A5.2,5.2,0,0,0,23,31.08a1,1,0,0,0,0,.33c.1.62.37.88.81.81a2.66,2.66,0,0,0,1.4-1.2A3.11,3.11,0,0,0,25.85,30Z"/><path class="cls-1" d="M30.89,40.15a.43.43,0,0,1-.44-.18,1.91,1.91,0,0,1-.31-.28,1.46,1.46,0,0,1-.36-.82,3.19,3.19,0,0,1,0-.45,6.71,6.71,0,0,0,0-1.62,2.34,2.34,0,0,1,0-.4c0-.17,0-.34,0-.48a2.57,2.57,0,0,0,.1-.62,3.18,3.18,0,0,0,0-.71.63.63,0,0,1,0-.32.88.88,0,0,1,.18-.33,2.61,2.61,0,0,1,0-.51c0-.24,0-.4,0-.49a34.9,34.9,0,0,1,.44-3.65c.29-1.93.56-3.49.79-4.68q.19-.81.3-1.5a3.9,3.9,0,0,0,0-1,.39.39,0,0,1,0-.21,2.66,2.66,0,0,1,.19-.3.75.75,0,0,1,.53-.32,1.58,1.58,0,0,1,.94.14,3,3,0,0,1,.36.47,1.31,1.31,0,0,1,.17.47c0,.05,0,.23,0,.52A1.78,1.78,0,0,1,33.76,24a4.6,4.6,0,0,0-.22.48,4.87,4.87,0,0,1,2.32-1.24,2.41,2.41,0,0,1,2.09.51A3,3,0,0,1,39,25.64a3.73,3.73,0,0,1-.19,1.44,4.35,4.35,0,0,1-.5,1.27c-.11,0-.22.24-.34.65a3.7,3.7,0,0,1-1.07,1.12c-.55.42-.93.62-1.16.58a.19.19,0,0,0-.07.08.31.31,0,0,0,0,.19c0,.07-.23.25-.74.52a4.5,4.5,0,0,1-1.36.52,1.89,1.89,0,0,1-.49,0,.78.78,0,0,1-.36-.11.52.52,0,0,0-.12.38,2.47,2.47,0,0,1-.12.9q-.18.63-.33.66a.35.35,0,0,0,0,.12c0,.06,0,.11.1.17s0,.19,0,.39a.88.88,0,0,1-.06.48,3.2,3.2,0,0,1,0,.68,2.3,2.3,0,0,1-.08.67,2,2,0,0,1,0,.65c0,.22-.08.33-.15.34s-.11.33,0,.82a2,2,0,0,1-.22,1.23c-.2.39-.41.61-.65.65Zm3.38-10.81a5.49,5.49,0,0,0,2.16-2.21,1.42,1.42,0,0,0,.17-.92,1.31,1.31,0,0,0-.37-.69.64.64,0,0,0-.62-.19c-.6.1-1.29.7-2.08,1.78a5,5,0,0,0-.64,1.44,3,3,0,0,0-.17,1.24c0,.16.1.24.2.22A5.09,5.09,0,0,0,34.27,29.34Z"/><path class="cls-1" d="M48.91,30.28a1.57,1.57,0,0,1-1.38-.4,2.89,2.89,0,0,1-.8-1.72,8.39,8.39,0,0,1,0-2.65c0-.14.08-.3.14-.5s.06-.29,0-.28-.23.16-.42.44A14.52,14.52,0,0,0,44.68,28a4.06,4.06,0,0,0-.52,2.14.56.56,0,0,1-.15.5.93.93,0,0,1-.5.26.92.92,0,0,1-.37,0A2.78,2.78,0,0,1,42,30.09a2.6,2.6,0,0,1-.58-1.5,24.1,24.1,0,0,1-.18-3.35c0-1,.15-2.39.38-4.23l.27-1.47c.28-1.69.44-2.61.49-2.76a4.61,4.61,0,0,0,.35-1.28,6.54,6.54,0,0,0,.15-1.27.76.76,0,0,1,0-.44c0-.15.09-.24.1-.28.12-.48.25-.74.39-.76a1.88,1.88,0,0,1,.83.17,1.3,1.3,0,0,1,.71.47,2,2,0,0,1,.36.78,2.65,2.65,0,0,1,0,1,15.68,15.68,0,0,1-.46,1.66A28.94,28.94,0,0,0,44,20.67c-.11.62-.23,1.48-.35,2.6a12.15,12.15,0,0,0-.12,2,.17.17,0,0,0,.22.16c.15,0,.28-.16.4-.41a1.8,1.8,0,0,1,.28-.46,5.69,5.69,0,0,0,.36-.51,17.21,17.21,0,0,1,1-1.64c.4-.55.73-.85,1-.9a1.64,1.64,0,0,1,1.68,1,1.23,1.23,0,0,1,.2.19.6.6,0,0,0,.13.14,1.08,1.08,0,0,1,.26.66,7.42,7.42,0,0,1,0,2.29,7.52,7.52,0,0,0,0,1.67c0,.24.12.34.25.32l.29-.25.51-.42a2.11,2.11,0,0,1,.88-.52.54.54,0,0,1,.43.08.5.5,0,0,1,.2.34,1.43,1.43,0,0,1-.07.6,1.68,1.68,0,0,0-.1.46l0,.14a2.89,2.89,0,0,1-.6.83,3.51,3.51,0,0,1-.94.86A2.54,2.54,0,0,1,48.91,30.28Z"/><path class="cls-1" d="M54.48,28.74a3.53,3.53,0,0,1-.88-1.57c0-.68-.08-1.18-.09-1.49,0-.92.1-2,.19-3.25s.14-1.95.18-2.08a.45.45,0,0,1,.39-.32,1.24,1.24,0,0,1,.7.11,1.92,1.92,0,0,1,.72.53,1.1,1.1,0,0,1,.33.64,10.72,10.72,0,0,1-.12,2.47q-.13,1.42-.15,2A5.4,5.4,0,0,0,55.89,27,14,14,0,0,1,56,28.73c0,.32-.1.48-.25.49A1.36,1.36,0,0,1,54.48,28.74Zm1.6-11.06a1,1,0,0,1-.38-.1,1.5,1.5,0,0,1-.8-.34c-.34-.23-.53-.4-.54-.49a3.94,3.94,0,0,1-.11-.94,3.88,3.88,0,0,1,.11-1.15c.1-.35.27-.56.52-.62l.54,0c.22,0,.48.07.77.13A4.24,4.24,0,0,1,57,15.87a1.57,1.57,0,0,1-.79,1.7A.29.29,0,0,1,56.08,17.68Z"/><path class="cls-1" d="M59.42,27.59a2.27,2.27,0,0,1-1-1,2.45,2.45,0,0,1-.14-.45,6.51,6.51,0,0,1,.23-2.67,11.61,11.61,0,0,1,1.32-3.15A7.19,7.19,0,0,1,62.07,18a2.34,2.34,0,0,1,.68-.42,2.35,2.35,0,0,1,.78.17,4.06,4.06,0,0,1,.92.14,1.82,1.82,0,0,1,.68.41A6,6,0,0,1,66,19.92a3.43,3.43,0,0,1,.31.78.55.55,0,0,1-.1.41l-.07.12c0,.07-.06.11,0,.14s0,0,.06,0a.68.68,0,0,1,0,.12.94.94,0,0,1-.06.28,5.87,5.87,0,0,0,0,1.65,2.66,2.66,0,0,0,.13.45c.27.44.53.63.8.59a1.35,1.35,0,0,0,.78-.64,1.52,1.52,0,0,1,.77-.42c.16,0,.25,0,.26.1l.13.06a.33.33,0,0,0,.17,0c.07,0,.12.07.15.23a2.21,2.21,0,0,1,0,.58,1.91,1.91,0,0,1-.13.61c-.1.15-.18.27-.24.38a.44.44,0,0,0-.07.23l-.34.45a2.33,2.33,0,0,1-1.16.51A2,2,0,0,1,66,26.51a4.43,4.43,0,0,1-1-.6,2.39,2.39,0,0,1-.62-.71L64.27,25l-.69.65-.55.83q-.16.3-.33.33l-.27,0c0,.13-.2.33-.68.59a3.77,3.77,0,0,1-1.14.48C60.32,28,59.92,27.91,59.42,27.59Zm2.47-3A7.34,7.34,0,0,0,63,23.29c.06-.1.13-.25.22-.44a2.29,2.29,0,0,1,.24-.45c.22-.39.39-.7.49-.93a1.09,1.09,0,0,0,.09-.65,1.42,1.42,0,0,0-.29-.56c-.11-.2-.24-.29-.38-.27a3.87,3.87,0,0,0-.59.3,4.68,4.68,0,0,0-1,1.43,15.32,15.32,0,0,0-.87,2.08,3.53,3.53,0,0,0-.27,1.47.28.28,0,0,0,.08.15.35.35,0,0,0,.1.09Q61.08,25.47,61.89,24.61Z"/></svg>